<?xml version="1.0"?>
<svg xmlns="http://www.w3.org/2000/svg" id="Capa_1" enable-background="new 0 0 551.13 551.13" height="512px" viewBox="0 0 551.13 551.13" width="512px" class=""><g><path d="m189.451 0h172.228c9.52 0 17.223 7.703 17.223 17.223v258.342h86.114c6.593 0 12.614 3.767 15.49 9.688 2.876 5.937 2.119 12.984-1.951 18.182l-189.451 241.119c-3.26 4.15-8.391 6.572-13.524 6.576-5.143.004-10.288-2.418-13.554-6.576l-189.451-241.12c-4.07-5.197-4.827-12.244-1.951-18.182 2.876-5.92 8.897-9.688 15.49-9.688h86.114v-258.341c0-9.52 7.703-17.223 17.223-17.223zm155.005 34.446h-137.782v258.342c0 9.52-7.703 17.223-17.223 17.223h-67.899l154.013 196.027 154.013-196.027h-67.899c-9.52 0-17.223-7.703-17.223-17.223z" data-original="#000000" class="active-path" data-old_color="#000000" fill="#FFFFFF"/></g> </svg>
